HIERARCHY
ROOT hip
{
	OFFSET 0.000000 0.000000 0.000000 
	CHANNELS 6 Xposition Yposition Zposition Xrotation Zrotation Yrotation
	JOINT abdomen
	{
		OFFSET 0.000000 3.402643 0.000000 
		CHANNELS 3 Xrotation Zrotation Yrotation
		JOINT chest
		{
			OFFSET 0.000000 8.438565 -0.680529 
			CHANNELS 3 Xrotation Zrotation Yrotation
			JOINT neck
			{
				OFFSET 0.000000 10.207942 -0.272212 
				CHANNELS 3 Xrotation Zrotation Yrotation
				JOINT head
				{
					OFFSET 0.000000 3.130431 0.000000 
					CHANNELS 3 Xrotation Zrotation Yrotation
					End Site
					{
						OFFSET 0.000000 3.130435 0.000000 
					}
				}
			}
			JOINT lCollar
			{
				OFFSET 3.470700 6.669187 -0.816635 
				CHANNELS 3 Yrotation Zrotation Xrotation
				JOINT lShldr
				{
					OFFSET 3.198488 0.000000 0.000000 
					CHANNELS 3 Zrotation Yrotation Xrotation
					JOINT lForeArm
					{
						OFFSET 10.139888 0.000000 0.000000 
						CHANNELS 3 Yrotation Zrotation Xrotation
						JOINT lHand
						{
							OFFSET 8.370511 0.000000 0.000000 
							CHANNELS 3 Zrotation Yrotation Xrotation
							End Site
							{
								OFFSET 4.083176 0.000000 0.000000 
							}
						}
					}
				}
			}
			JOINT rCollar
			{
				OFFSET -3.470700 6.669187 -0.816635 
				CHANNELS 3 Yrotation Zrotation Xrotation
				JOINT rShldr
				{
					OFFSET -3.198488 0.000000 0.000000 
					CHANNELS 3 Zrotation Yrotation Xrotation
					JOINT rForeArm
					{
						OFFSET -10.139888 0.000000 0.000000 
						CHANNELS 3 Yrotation Zrotation Xrotation
						JOINT rHand
						{
							OFFSET -8.370511 0.000000 0.000000 
							CHANNELS 3 Zrotation Yrotation Xrotation
							End Site
							{
								OFFSET -4.083176 0.000000 0.000000 
							}
						}
					}
				}
			}
		}
	}
	JOINT lThigh
	{
		OFFSET 5.308129 -1.633274 1.361059 
		CHANNELS 3 Xrotation Zrotation Yrotation
		JOINT lShin
		{
			OFFSET -2.041588 -20.007561 0.000000 
			CHANNELS 3 Xrotation Zrotation Yrotation
			JOINT lFoot
			{
				OFFSET 0.000000 -19.190928 -1.224953 
				CHANNELS 3 Xrotation Yrotation Zrotation
				End Site
				{
					OFFSET 0.000000 -2.449906 4.627600 
				}
			}
		}
	}
	JOINT rThigh
	{
		OFFSET -5.308129 -1.633274 1.361059 
		CHANNELS 3 Xrotation Zrotation Yrotation
		JOINT rShin
		{
			OFFSET 2.041588 -20.007561 0.000000 
			CHANNELS 3 Xrotation Zrotation Yrotation
			JOINT rFoot
			{
				OFFSET 0.000000 -19.190928 -1.224953 
				CHANNELS 3 Xrotation Yrotation Zrotation
				End Site
				{
					OFFSET 0.000000 -2.449906 4.627600 
				}
			}
		}
	}
}
MOTION
Frames: 6
Frame Time: 0.033333
-0.025847 51.876190 0.483617 -3.173828 1.748047 -155.136429 24.412647 -9.755377 -5.905164 -16.923828 8.818360 2.763672 51.063168 8.107644 2.471410 -47.968754 -21.708982 15.888671 2.000000 -2.000000 0.000000 -97.646484 19.785154 -34.889271 -82.744019 -0.751372 -3.043233 -63.006939 31.637798 -90.324081 -2.000000 2.000000 0.000000 50.878906 -31.259768 30.859375 104.645668 -0.609422 -3.024293 -59.667629 -49.579842 77.117081 -6.748864 16.700136 27.690054 22.997103 -4.872759 -2.160981 -5.650724 3.194077 -6.153826 -3.946497 -10.430495 -29.152081 23.045555 4.711752 1.931204 -7.926946 -7.662056 6.366784 
-0.042467 51.813175 0.978819 -3.007812 1.748047 -154.433289 25.456997 -9.168034 -5.855425 -16.738281 8.984375 2.832031 51.063168 8.107644 2.471410 -46.357422 -23.896482 18.583984 2.000000 -2.000000 0.000000 -97.636719 19.072266 -34.804691 -82.920082 -0.742186 -3.053671 -62.894398 32.111195 -90.515297 -2.000000 2.000000 0.000000 50.332031 -30.615234 30.239166 104.821442 -0.619172 -3.024856 -59.268768 -49.441357 76.432182 -7.285440 16.312294 27.086138 23.358097 -4.863019 -2.198940 -5.518460 3.637160 -6.100352 -4.277728 -10.750165 -30.004564 23.036310 4.709695 1.920298 -8.023542 -7.687268 5.920179 
-0.053921 51.773773 1.478025 -2.646484 1.748047 -153.896484 26.495565 -8.605630 -5.796135 -16.386721 8.964845 2.880859 51.063168 8.107644 2.471410 -44.912113 -26.044922 21.230469 2.000000 -2.000000 0.000000 -97.792969 18.603516 -34.215633 -82.920082 -0.742186 -3.053671 -62.218254 32.779289 -90.146538 -2.000000 2.000000 0.000000 49.599609 -30.585936 29.995031 105.349045 -0.647856 -3.036294 -59.148544 -49.572227 76.126381 -8.047097 16.132236 26.311655 23.676769 -4.862680 -2.245127 -5.152355 3.667429 -6.123813 -4.434040 -11.073120 -30.343361 23.036322 4.709641 1.920288 -7.785203 -7.854254 6.037153 
-0.051841 51.718632 1.974001 -2.646484 1.748047 -153.544922 27.527889 -7.874106 -5.629282 -16.015625 9.121094 2.988281 51.063168 8.107644 2.471410 -43.779301 -28.154295 23.242186 2.000000 -2.000000 0.000000 -97.382805 17.783203 -33.356388 -82.895325 -0.223938 -2.888047 -61.642014 32.895145 -90.442253 -2.000000 2.000000 0.000000 49.150394 -30.800779 29.340704 105.876099 -0.667918 -3.027676 -58.809875 -50.161999 75.217567 -8.612832 15.833655 25.921301 23.894512 -4.785567 -2.432878 -5.360340 3.742779 -6.205938 -4.697537 -11.238588 -31.003353 23.403351 4.691241 2.102725 -7.431780 -7.623673 5.805674 
-0.045826 51.671364 2.453315 -2.832031 1.914063 -153.378571 29.822811 -7.874106 -5.629282 -15.839844 9.111328 2.832031 51.063168 8.107644 2.471410 -43.398438 -29.736328 24.443357 2.000000 -2.000000 0.000000 -97.500000 17.109375 -32.939453 -82.903404 -0.386286 -2.819959 -61.161522 33.896950 -90.232399 -2.000000 2.000000 0.000000 48.583984 -31.093750 29.155117 106.754982 -0.706915 -3.029932 -57.947651 -50.852058 74.535378 -9.511127 15.492311 24.878853 23.856274 -4.867850 -2.231593 -4.821106 4.458783 -6.469533 -5.420329 -11.656912 -31.656612 23.403048 4.691091 2.112417 -7.613563 -7.243497 5.198701 
-0.005980 51.639851 2.919713 -3.007812 1.914063 -153.212570 29.822811 -7.874106 -5.629282 -15.468749 9.257813 2.941024 51.063168 8.107644 2.471410 -43.408207 -30.947260 25.107424 2.000000 -2.000000 0.000000 -96.972656 16.123047 -32.155491 -82.551842 -0.396036 -2.819393 -60.263550 34.455929 -89.639503 -2.000000 2.000000 0.000000 48.261719 -31.630859 28.637457 107.458359 -0.735599 -3.041369 -56.521748 -51.817406 73.123123 -10.447452 15.224998 24.474224 24.048666 -4.845205 -2.282384 -4.501744 4.821805 -7.075233 -6.074903 -11.909389 -32.098148 23.578773 4.685373 1.970154 -7.536437 -7.043904 4.724903 
